<svg xmlns="http://www.w3.org/2000/svg" width="297.18mm" height="210.18mm" viewBox="0 0 842.39 595.78"><defs><style>.cls-1,.cls-8{fill:#1d1d1b;}.cls-2{fill:#646363;}.cls-10,.cls-3{fill:#d0d0d0;}.cls-4{fill:#ededed;}.cls-5,.cls-9{fill:#fff;}.cls-6{fill:#c4c4c4;}.cls-7{fill:#9d9d9c;}.cls-10,.cls-8,.cls-9{stroke:#1d1d1b;stroke-miterlimit:10;}</style></defs><title>skyline</title><g id="Ebene_2" data-name="Ebene 2"><g id="Ebene_1-2" data-name="Ebene 1"><rect class="cls-1" x="33.5" y="7.4" width="215.45" height="587.77"/><rect class="cls-2" x="232.42" y="48.35" width="160.72" height="546.94"/><rect class="cls-3" x="393.14" y="7.4" width="221.36" height="587.86"/><rect class="cls-1" x="614.5" y="0.03" width="164.86" height="595.23"/><rect class="cls-4" x="540.63" y="54.65" width="114.58" height="540.66"/><rect class="cls-1" x="779.36" y="0.03" width="26.41" height="595.24"/><rect class="cls-5" x="44.5" y="22.08" width="187.92" height="99.42"/><rect class="cls-5" x="44.5" y="131" width="190.17" height="27.12"/><rect class="cls-3" x="245.09" y="61.08" width="138.52" height="17.52"/><rect class="cls-3" x="248.95" y="94.39" width="134.67" height="20.61"/><rect class="cls-1" x="410.39" y="22" width="178.25" height="6.67"/><rect class="cls-5" x="631.5" y="7.4" width="11.29" height="16.89"/><circle class="cls-1" cx="636.55" cy="13.13" r="2.55"/><rect class="cls-1" x="636.24" y="14.72" width="0.57" height="10.4"/><rect class="cls-1" x="633.94" y="12.73" width="0.62" height="7.19" transform="translate(139.44 413.44) rotate(-40.22)"/><rect class="cls-1" x="638.8" y="12.73" width="0.62" height="7.19" transform="translate(198.73 -447.13) rotate(45)"/><circle class="cls-5" cx="635.06" cy="12.69" r="0.43"/><circle class="cls-5" cx="637.58" cy="12.69" r="0.43"/><ellipse class="cls-5" cx="636.43" cy="14.65" rx="1.15" ry="0.52"/><text></text><path class="cls-6" d="M95.5,595.21h-62V108c20.69-45.07,43.16-32.86,62,0Z"/><path class="cls-7" d="M158.5,595.28h-52V165q26-22,52,0Z"/><polygon class="cls-8" points="466.77 594.89 125.44 594.89 125.44 475.61 393.14 475.61 427.64 475.61 466.77 475.61 466.77 594.89"/><rect class="cls-2" x="169.5" y="94" width="31" height="382"/><rect class="cls-7" x="212.5" y="111" width="13" height="365"/><path class="cls-1" d="M296.11,476H240.5V143q27.81-56,55.61,0Z"/><rect class="cls-3" x="691.5" y="16" width="105" height="579.28"/><rect class="cls-8" x="466.77" y="535.64" width="147.69" height="59.18"/><rect class="cls-3" x="314.5" y="176" width="16" height="300"/><path class="cls-5" d="M368.5,476h-32V143q16-116,32,0Z"/><rect class="cls-1" x="0.5" y="22" width="22.62" height="573.31"/><circle class="cls-5" cx="64.5" cy="111" r="20"/><circle class="cls-5" cx="185" cy="112.25" r="9.25"/><circle class="cls-5" cx="185" cy="140.25" r="9.25"/><circle class="cls-5" cx="185.5" cy="189.89" r="8.63"/><circle class="cls-5" cx="185" cy="216.76" r="9.2"/><circle class="cls-5" cx="185" cy="245.5" r="10.5"/><circle class="cls-5" cx="185" cy="271.18" r="9.77"/><circle class="cls-5" cx="185.31" cy="167.06" r="8.94"/><circle class="cls-5" cx="185.5" cy="298.75" r="10.88"/><circle class="cls-5" cx="185" cy="326" r="12.2"/><circle class="cls-5" cx="185.5" cy="355.2" r="9.2"/><circle class="cls-5" cx="185" cy="378.48" r="10.5"/><circle class="cls-5" cx="185" cy="432.78" r="11.93"/><circle class="cls-5" cx="185.5" cy="460.35" r="10.5"/><path class="cls-9" d="M64.5,91v20l10-10"/><rect class="cls-5" x="44.5" y="140.25" width="16" height="26.81"/><rect class="cls-5" x="72.13" y="257.77" width="16" height="26.81"/><rect class="cls-5" x="44.5" y="257.77" width="16" height="26.81"/><rect class="cls-5" x="72.13" y="216.76" width="16" height="26.81"/><rect class="cls-5" x="44.5" y="216.76" width="16" height="26.81"/><rect class="cls-5" x="72.63" y="176.48" width="16" height="26.81"/><rect class="cls-5" x="44.5" y="176.48" width="16" height="26.81"/><rect class="cls-5" x="72.13" y="140.59" width="16" height="26.81"/><rect class="cls-5" x="44.5" y="470.85" width="16" height="26.81"/><rect class="cls-5" x="72.13" y="436.44" width="16" height="26.81"/><rect class="cls-5" x="44.5" y="436.44" width="16" height="26.81"/><rect class="cls-5" x="72.13" y="403.72" width="16" height="26.81"/><rect class="cls-5" x="44.5" y="403.72" width="16" height="26.81"/><rect class="cls-5" x="72.13" y="367.98" width="16" height="26.81"/><rect class="cls-5" x="44.5" y="367.98" width="16" height="26.81"/><rect class="cls-5" x="72.13" y="332.59" width="16" height="26.81"/><rect class="cls-5" x="44.5" y="332.59" width="16" height="26.81"/><rect class="cls-5" x="72.13" y="296.23" width="16" height="26.81"/><rect class="cls-5" x="44.5" y="294.96" width="16" height="26.81"/><rect class="cls-5" x="72.13" y="543.4" width="16" height="26.81"/><rect class="cls-5" x="44.5" y="543.4" width="16" height="26.81"/><rect class="cls-5" x="72.13" y="507.13" width="16" height="26.81"/><rect class="cls-5" x="44.5" y="507.13" width="16" height="26.81"/><rect class="cls-5" x="72.13" y="470.85" width="16" height="26.81"/><rect class="cls-9" x="0.5" y="39.8" width="11" height="100.45"/><rect class="cls-9" x="0.5" y="153.07" width="11" height="100.45"/><rect class="cls-9" x="0.5" y="275.77" width="11" height="100.45"/><rect class="cls-9" x="2.5" y="397.95" width="11" height="100.45"/><rect class="cls-9" x="2.5" y="506.58" width="11" height="88.34"/><path class="cls-7" d="M691.5,39.8h105v32h-105V111h105v29.59l-105-.34V176l105,.48V203.3h-105V235h105v36.18h-105v34.46h105V338.2h-105V368h105v30l-105-.88v33.46h105v29.82h-105v31.77h105v28.41h-105v36.28h105"/><polyline class="cls-1" points="717.61 556.81 717.61 39.8 762.98 39.8 768.31 556.81"/><rect class="cls-10" x="149.83" y="484.26" width="296.48" height="22.87"/><rect class="cls-9" x="158.5" y="533.94" width="43" height="61.34"/><circle class="cls-5" cx="185" cy="403.72" r="10.5"/><rect class="cls-3" x="245.09" y="149.5" width="44.71" height="49.02"/><rect class="cls-3" x="245.09" y="207.35" width="44.71" height="22.81"/><rect class="cls-3" x="245.09" y="243.57" width="23.21" height="232.43"/><rect class="cls-3" x="278.46" y="243.57" width="11.35" height="232.43"/><polygon class="cls-8" points="132.5 163.94 138.13 175.35 150.72 177.18 141.61 186.05 143.76 198.59 132.5 192.67 121.24 198.59 123.39 186.05 114.28 177.18 126.87 175.35 132.5 163.94"/><polygon class="cls-5" points="446.31 28.02 442.59 29.86 441.99 33.97 439.1 31 435 31.7 436.94 28.02 435 24.35 439.1 25.05 441.99 22.08 442.59 26.19 446.31 28.02"/><polygon class="cls-5" points="473.43 48.88 469.77 51.45 469.81 55.93 466.23 53.25 461.99 54.68 463.44 50.44 460.76 46.85 465.24 46.91 467.83 43.26 469.15 47.54 473.43 48.88"/><polygon class="cls-5" points="513.04 49.6 508.7 51.74 508 56.54 504.62 53.07 499.84 53.89 502.1 49.6 499.84 45.31 504.62 46.13 508 42.66 508.7 47.45 513.04 49.6"/><polyline class="cls-1" points="341.53 112.25 368.5 143 336.5 163.94 368.5 189.89 336.5 207.35 368.5 235 336.5 253.52 368.5 275.77 336.5 297.64 368.5 321.78 336.5 346 368.5 378.48 336.5 397.95 368.5 430.53 336.5 449.85 368.5 476"/><rect class="cls-2" x="164.81" y="543.4" width="31.19" height="51.88"/><rect class="cls-8" x="225.5" y="543.4" width="379.29" height="51.15"/><rect class="cls-3" x="234.67" y="551.41" width="360.59" height="43.86"/><circle class="cls-1" cx="132.5" cy="218.58" r="3.53"/><circle class="cls-2" cx="410.39" cy="132.25" r="17.25"/><circle class="cls-5" cx="410.39" cy="167.06" r="17.25"/><circle class="cls-2" cx="410.39" cy="201.17" r="17.25"/><circle class="cls-5" cx="410.39" cy="235.98" r="17.25"/><circle class="cls-2" cx="410.39" cy="270.48" r="17.25"/><circle class="cls-5" cx="410.39" cy="305.3" r="17.25"/><circle class="cls-2" cx="410.39" cy="337.79" r="17.25"/><circle class="cls-5" cx="410.39" cy="372.6" r="17.25"/><circle class="cls-2" cx="410.39" cy="407.1" r="17.25"/><circle class="cls-5" cx="410.39" cy="441.92" r="17.25"/><path class="cls-2" d="M427.64,476.42c0,9.52-34.5,9.52-34.5,0a17.25,17.25,0,1,1,34.5,0Z"/><polygon class="cls-5" points="750.28 15.36 757.59 28.02 750.28 40.69 735.65 40.69 728.33 28.02 735.65 15.36 750.28 15.36"/><polygon class="cls-2" points="779.53 16 786.85 28.67 779.53 41.34 764.9 41.34 757.59 28.67 764.9 16 779.53 16"/><polygon class="cls-2" points="721.02 15.36 728.33 28.02 721.02 40.69 706.39 40.69 699.08 28.02 706.39 15.36 721.02 15.36"/><circle class="cls-9" cx="732.87" cy="61.08" r="4.54"/><circle class="cls-5" cx="748.63" cy="116.88" r="4.63"/><circle class="cls-5" cx="732.87" cy="168.48" r="4.54"/><circle class="cls-5" cx="755.42" cy="224.28" r="2.17"/><circle class="cls-9" cx="732.87" cy="511.67" r="4.54"/><circle class="cls-5" cx="727.93" cy="258.17" r="4.94"/><circle class="cls-9" cx="749.71" cy="481.71" r="5.71"/><circle class="cls-5" cx="732.3" cy="445.88" r="3.97"/><circle class="cls-5" cx="752.02" cy="396.62" r="3.4"/><circle class="cls-5" cx="727.67" cy="359.72" r="4.68"/><circle class="cls-5" cx="748.01" cy="316.9" r="4.01"/><circle class="cls-9" cx="756.03" cy="547.41" r="4.01"/><circle class="cls-9" cx="734.57" cy="92.7" r="1.7"/><circle class="cls-5" cx="751.48" cy="170.25" r="1.77"/><circle class="cls-5" cx="729.99" cy="290.36" r="2.31"/><circle class="cls-5" cx="743.48" cy="368.49" r="0.52"/><circle class="cls-9" cx="725" cy="545.4" r="2"/><circle class="cls-5" cx="729.65" cy="192.54" r="2.65"/><circle class="cls-9" cx="745.49" cy="52.12" r="2.52"/><polygon class="cls-2" points="748.51 34.61 740.03 36.12 734.48 29.53 737.41 21.44 745.89 19.93 751.44 26.52 748.51 34.61"/><rect class="cls-2" x="622.99" y="91" width="60" height="504.37" rx="12" ry="12"/><rect class="cls-1" x="630.5" y="103" width="43.79" height="43.79" rx="12" ry="12"/><rect class="cls-1" x="629.9" y="207.35" width="46.17" height="46.17" rx="12" ry="12"/><rect class="cls-1" x="628.68" y="320.54" width="47.43" height="47.43" rx="12" ry="12"/><rect class="cls-1" x="631.5" y="430.53" width="47.43" height="47.43" rx="12" ry="12"/><rect class="cls-1" x="595.41" y="7.4" width="9.38" height="587.14"/><rect class="cls-7" x="481.92" y="101" width="97.9" height="432.94"/><ellipse class="cls-1" cx="531.09" cy="149.5" rx="39.99" ry="41.46"/><line class="cls-5" x1="531.09" y1="108.04" x2="531.09" y2="190.96"/><line class="cls-5" x1="491.1" y1="149.5" x2="571.08" y2="149.5"/><rect class="cls-2" x="499.84" y="207.35" width="65.25" height="326.58"/><rect class="cls-1" x="437.46" y="90.02" width="29.3" height="385.98"/><rect class="cls-1" x="807.39" width="35" height="595.28"/><rect class="cls-3" x="820.68" y="7.4" width="21.71" height="297.89"/><rect class="cls-3" x="820.68" y="326" width="21.71" height="269.28"/><circle class="cls-1" cx="503.71" cy="48.15" r="0.59"/><circle class="cls-1" cx="507.75" cy="48.35" r="0.79"/><circle class="cls-1" cx="464.51" cy="49.02" r="0.87"/><circle class="cls-1" cx="468.23" cy="49.29" r="1.14"/><circle class="cls-1" cx="438.39" cy="27.06" r="0.54"/><circle class="cls-1" cx="441.41" cy="27.27" r="0.75"/></g></g></svg>