<svg xmlns="http://www.w3.org/2000/svg" viewBox="0 0 579.81 392.34"><defs><style>.cls-1{fill:#fff;}.cls-2{fill:#d31916;}.cls-3{fill:#ddd;}.cls-4{fill:#d17818;}.cls-5{fill:#d14d19;}.cls-6{fill:#e05d5c;}.cls-7{fill:#d93c3d;}.cls-8{fill:#cc613b;}</style></defs><title>icon</title><g id="Ebene_2" data-name="Ebene 2"><g id="Ebene_1-2" data-name="Ebene 1"><rect class="cls-1" width="579.81" height="392.34"/><rect class="cls-2" x="14.33" y="12.03" width="175.32" height="175.32"/><rect x="28.72" y="29.87" width="13.34" height="108.93"/><rect x="49.11" y="29.87" width="6.67" height="108.93"/><rect x="60.68" y="29.53" width="5.02" height="108.93"/><rect x="73.04" y="29.53" width="13.34" height="108.93"/><rect x="99.72" y="29.47" width="6.67" height="108.93"/><rect x="119.79" y="29.67" width="10" height="108.93"/><rect x="148.8" y="29.67" width="13.34" height="108.93"/><rect x="168.03" y="30.01" width="6.67" height="108.93"/><path class="cls-3" d="M63.78,30.75,53.57,126.47s1.7,34.8,30.65,42.42l1.7,31,16.11,0-.71-73.29-5.7.09-3.68-95.8s-2.16-2.78-3.8,0-7.51,96.23-7.51,96.23l-11.89-.22-.1-96.17S66.55,26.64,63.78,30.75Z"/><path class="cls-3" d="M137.78,30.76,148,126.47s-1.7,34.8-30.65,42.42l-1.7,31-16.11,0,.7-73.29,6,.29,3.23-95.63c-.06-.26,2.29-3.45,4.09,0,1.47,2.83,7.35,95.86,7.35,95.86l13.66.18-1.68-96.56S135,26.65,137.78,30.76Z"/><rect class="cls-3" x="59.25" y="115.87" width="81.84" height="27.46"/><rect class="cls-1" x="53.49" y="187.56" width="125.23" height="16.73"/><rect class="cls-4" x="201.58" y="12.85" width="175.32" height="175.32"/><rect x="215.98" y="30.69" width="13.34" height="108.93"/><rect x="236.36" y="30.69" width="6.67" height="108.93"/><rect x="247.94" y="30.36" width="5.02" height="108.93"/><rect x="260.3" y="30.36" width="13.34" height="108.93"/><rect x="286.97" y="30.3" width="6.67" height="108.93"/><rect x="307.04" y="30.49" width="10" height="108.93"/><rect x="336.05" y="30.49" width="13.34" height="108.93"/><rect x="355.28" y="30.83" width="6.67" height="108.93"/><path class="cls-3" d="M251,31.57l-10.22,95.72s1.7,34.81,30.65,42.42l1.7,31,16.11-.05-.7-73.29-5.71.1-3.67-95.8s-2.17-2.78-3.8,0-7.52,96.22-7.52,96.22L256,127.67l-.1-96.16S253.8,27.46,251,31.57Z"/><path class="cls-3" d="M325,31.58l10.21,95.72s-1.7,34.8-30.64,42.41l-1.71,31-16.11-.05.71-73.28,6,.29L296.76,32c-.07-.26,2.29-3.46,4.08,0,1.47,2.83,7.35,95.86,7.35,95.86l13.66.18-1.67-96.56S322.27,27.48,325,31.58Z"/><rect class="cls-3" x="246.5" y="116.7" width="81.84" height="27.46"/><rect class="cls-1" x="240.75" y="188.38" width="125.23" height="16.73"/><rect class="cls-5" x="389.29" y="13.12" width="175.32" height="175.32"/><rect x="403.69" y="30.96" width="13.34" height="108.93"/><rect x="424.07" y="30.96" width="6.67" height="108.93"/><rect x="435.65" y="30.62" width="5.02" height="108.93"/><rect x="448.01" y="30.62" width="13.34" height="108.93"/><rect x="474.68" y="30.56" width="6.67" height="108.93"/><rect x="494.75" y="30.76" width="10" height="108.93"/><rect x="523.76" y="30.76" width="13.34" height="108.93"/><rect x="542.99" y="31.1" width="6.67" height="108.93"/><path class="cls-3" d="M438.75,31.84l-10.22,95.71s1.71,34.81,30.65,42.43l1.7,31,16.11,0-.7-73.29-5.71.09-3.67-95.8s-2.17-2.78-3.8,0-7.52,96.23-7.52,96.23l-11.88-.22-.1-96.17S441.52,27.73,438.75,31.84Z"/><path class="cls-3" d="M512.75,31.85,523,127.56s-1.7,34.8-30.64,42.42l-1.71,31-16.11,0,.71-73.29,6,.29,3.24-95.63c-.07-.26,2.29-3.45,4.08,0,1.47,2.83,7.36,95.86,7.36,95.86l13.65.18-1.67-96.56S510,27.74,512.75,31.85Z"/><rect class="cls-3" x="434.21" y="116.96" width="81.84" height="27.46"/><rect class="cls-1" x="428.46" y="188.65" width="125.23" height="16.73"/><rect class="cls-6" x="14.62" y="199.42" width="175.32" height="175.32"/><rect x="29.01" y="217.26" width="13.34" height="108.93"/><rect x="49.4" y="217.26" width="6.67" height="108.93"/><rect x="60.97" y="216.92" width="5.02" height="108.93"/><rect x="73.33" y="216.92" width="13.34" height="108.93"/><rect x="100" y="216.86" width="6.67" height="108.93"/><rect x="120.07" y="217.06" width="10" height="108.93"/><rect x="149.08" y="217.06" width="13.34" height="108.93"/><rect x="168.31" y="217.4" width="6.67" height="108.93"/><path class="cls-3" d="M64.07,218.14,53.86,313.85s1.7,34.81,30.64,42.42l1.71,31,16.11,0-.71-73.29L95.9,314l-3.67-95.8s-2.16-2.78-3.8,0-7.52,96.23-7.52,96.23L69,314.24l-.1-96.17S66.84,214,64.07,218.14Z"/><path class="cls-3" d="M138.07,218.15l10.22,95.71s-1.71,34.8-30.65,42.42l-1.7,31-16.11,0,.7-73.29,6,.29,3.23-95.63c-.06-.26,2.29-3.45,4.09,0,1.47,2.83,7.35,95.86,7.35,95.86l13.65.18-1.67-96.56S135.3,214,138.07,218.15Z"/><rect class="cls-3" x="59.53" y="303.26" width="81.84" height="27.46"/><rect class="cls-1" x="53.78" y="374.95" width="125.23" height="16.73"/><rect class="cls-7" x="201.96" y="199.12" width="175.32" height="175.32"/><rect x="216.36" y="216.96" width="13.34" height="108.93"/><rect x="236.74" y="216.96" width="6.67" height="108.93"/><rect x="248.32" y="216.62" width="5.02" height="108.93"/><rect x="260.68" y="216.62" width="13.34" height="108.93"/><rect x="287.35" y="216.56" width="6.67" height="108.93"/><rect x="307.42" y="216.76" width="10" height="108.93"/><rect x="336.43" y="216.76" width="13.34" height="108.93"/><rect x="355.66" y="217.1" width="6.67" height="108.93"/><path class="cls-3" d="M251.42,217.84,241.2,313.56s1.7,34.8,30.65,42.42l1.7,31,16.11-.05-.7-73.29-5.71.09-3.68-95.79s-2.16-2.79-3.79,0-7.52,96.22-7.52,96.22l-11.88-.22-.1-96.17S254.18,213.73,251.42,217.84Z"/><path class="cls-3" d="M325.42,217.85l10.21,95.71S333.93,348.37,305,356l-1.71,31-16.11-.05.71-73.29,6,.29,3.24-95.62c-.07-.26,2.29-3.46,4.08,0,1.47,2.83,7.35,95.86,7.35,95.86l13.66.18-1.67-96.57S322.65,213.74,325.42,217.85Z"/><rect class="cls-3" x="246.88" y="302.97" width="81.84" height="27.46"/><rect class="cls-1" x="241.13" y="374.65" width="125.23" height="16.73"/><rect class="cls-8" x="390.67" y="198.84" width="175.32" height="175.32"/><rect x="405.06" y="216.68" width="13.34" height="108.93"/><rect x="425.45" y="216.68" width="6.67" height="108.93"/><rect x="437.02" y="216.34" width="5.02" height="108.93"/><rect x="449.38" y="216.34" width="13.34" height="108.93"/><rect x="476.05" y="216.28" width="6.67" height="108.93"/><rect x="496.13" y="216.48" width="10" height="108.93"/><rect x="525.14" y="216.48" width="13.34" height="108.93"/><rect x="544.36" y="216.82" width="6.67" height="108.93"/><path class="cls-3" d="M440.12,217.56l-10.21,95.72s1.7,34.8,30.64,42.42l1.71,31,16.11-.05-.71-73.29-5.7.09-3.68-95.79s-2.16-2.79-3.8,0S457,313.88,457,313.88l-11.89-.22-.1-96.17S442.89,213.45,440.12,217.56Z"/><path class="cls-3" d="M514.12,217.57l10.22,95.71s-1.7,34.81-30.65,42.42l-1.7,31-16.11-.05.7-73.29,6,.29L485.84,218c-.06-.26,2.29-3.46,4.09,0,1.47,2.83,7.35,95.86,7.35,95.86l13.65.18-1.67-96.57S511.36,213.46,514.12,217.57Z"/><rect class="cls-3" x="435.59" y="302.69" width="81.84" height="27.46"/><rect class="cls-1" x="429.83" y="374.37" width="125.23" height="16.73"/></g></g></svg>