<svg xmlns="http://www.w3.org/2000/svg" xmlns:xlink="http://www.w3.org/1999/xlink" width="250.75mm" height="134.68mm" viewBox="0 0 710.78 381.78"><defs><style>.cls-1{fill:none;}.cls-2{clip-path:url(#clip-path);}.cls-3{font-size:8.06px;font-family:Silom, Silom;}.cls-3,.cls-59{fill:#fff;}.cls-4{fill:#9b6e5e;}.cls-5{fill:#2d8e8e;}.cls-6{fill:#51b5b5;}.cls-7{fill:#1e787a;}.cls-8{fill:#309393;}.cls-9{fill:#439694;}.cls-10{fill:#339393;}.cls-11{fill:#5caaa8;}.cls-12{fill:#7dc6c6;}.cls-13{fill:#59b5b5;}.cls-14{fill:#69c2c2;}.cls-15{fill:#9fd5da;}.cls-16{fill:#50a4a1;}.cls-17{fill:#368c8c;}.cls-18{fill:#45a3a3;}.cls-19{fill:#429b9b;}.cls-20{fill:#459999;}.cls-21{fill:#329390;}.cls-22{fill:#378989;}.cls-23{fill:#54a6a4;}.cls-24{fill:#1e7272;}.cls-25{fill:#036363;}.cls-26{fill:#379391;}.cls-27{fill:#63c0bf;}.cls-28{fill:#6eb6b6;}.cls-29{fill:#74c6c7;}.cls-30{fill:#1b5b56;}.cls-31{fill:#398484;}.cls-32{fill:#2f8c8c;}.cls-33{fill:#1e8787;}.cls-34{fill:#409995;}.cls-35{fill:#1b6362;}.cls-36{fill:#176060;}.cls-37{fill:#185654;}.cls-38{fill:#6ec1bc;}.cls-39{fill:#50a6a1;}.cls-40{fill:#338280;}.cls-41{fill:#196868;}.cls-42{fill:#298787;}.cls-43{fill:#328e8e;}.cls-44{fill:#52aaaa;}.cls-45{fill:#2f9191;}.cls-46{fill:#3ba3a0;}.cls-47{fill:#70b7bc;}.cls-48{fill:#75c4c2;}.cls-49{fill:#bbe1e4;}.cls-50{fill:#77b6b3;}.cls-51{fill:#80cacb;}.cls-52{fill:#69bab4;}.cls-53{fill:#4aafaf;}.cls-54{fill:#48adad;}.cls-55{fill:#348989;}.cls-56{fill:#3b9694;}.cls-57{fill:#468986;}.cls-58{fill:#419997;}.cls-60{fill:#276670;}</style><clipPath id="clip-path"><circle class="cls-1" cx="357.72" cy="190.89" r="186.39"/></clipPath></defs><title>karte</title><g id="Ebene_2" data-name="Ebene 2"><g id="Ebene_4" data-name="Ebene 4"><g class="cls-2"><text class="cls-3" transform="matrix(0.97, -0.26, 0.26, 0.97, 4.07, 231.29)">W</text><text class="cls-3" transform="matrix(0.97, -0.26, 0.26, 0.97, 11.85, 229.23)">e</text><text class="cls-3" transform="translate(17.07 227.85) rotate(-14.83)">i</text><text class="cls-3" transform="matrix(0.97, -0.26, 0.26, 0.97, 19.66, 227.16)">k</text><text class="cls-3" transform="matrix(0.97, -0.26, 0.26, 0.97, 24.87, 225.78)">e</text><text class="cls-3" transform="matrix(0.97, -0.26, 0.26, 0.97, 30.05, 224.41)">n</text><text class="cls-3" transform="translate(35.25 223.03) rotate(-14.83)">d</text><text class="cls-3" transform="translate(40.45 221.66) rotate(-14.83)">o</text><text class="cls-3" transform="translate(45.65 220.28) rotate(-14.83)">r</text><text class="cls-3" transform="translate(49.57 219.24) rotate(-14.83)">f</text><text class="cls-3" transform="matrix(0.97, -0.26, 0.26, 0.97, 53.45, 218.21)">e</text><text class="cls-3" transform="matrix(0.97, -0.26, 0.26, 0.97, 58.63, 216.84)">r</text><text class="cls-3" transform="matrix(0.97, -0.26, 0.26, 0.97, 62.55, 215.8)"> </text><text class="cls-3" transform="translate(64.48 215.29) rotate(-14.83)">S</text><text class="cls-3" transform="translate(69.03 214.09) rotate(-14.83)">t</text><text class="cls-3" transform="translate(72.93 213.06) rotate(-14.83)">r</text><text class="cls-3" transform="matrix(0.97, -0.26, 0.26, 0.97, 76.82, 212.02)">a</text><text class="cls-3" transform="translate(82.04 210.64) rotate(-14.83)">ß</text><text class="cls-3" transform="matrix(0.97, -0.26, 0.26, 0.97, 87.24, 209.27)">e</text><rect class="cls-4" x="124.5" y="5.39" width="533" height="376.09"/><polygon class="cls-5" points="283.39 114.99 276.98 114.99 248.41 135.49 233.71 161.57 266.52 176.89 299.33 123.06 283.39 114.99"/><polygon class="cls-6" points="217.64 139.05 232.06 159.7 246.35 135.09 275.34 113.88 252.71 87.15 217.64 139.05"/><polygon class="cls-7" points="315.87 85.15 314.59 78.75 284.97 113.77 300.2 121.75 309.32 110.07 301.63 102.81 315.87 85.15"/><polygon class="cls-8" points="315.87 77.83 317.46 85.72 303.86 102.75 310.24 108.71 340.2 63.64 335.25 59.87 315.87 77.83"/><polygon class="cls-9" points="277.17 52.34 254 85.93 270.93 105.56 279.02 91.18 280.07 91.84 272.21 106.64 277.32 113.43 283.57 113.43 310.42 80.4 308.21 76.82 277.17 52.34"/><polygon class="cls-10" points="298.23 67.18 309.52 76.06 311.24 79.23 334.27 58.99 316.25 45.1 298.23 67.18"/><polygon class="cls-11" points="278.05 51.04 297.34 66.02 314.87 44.28 295.77 30.38 278.05 51.04"/><polygon class="cls-12" points="261.59 37.03 276.87 49.76 294.69 29.2 280.2 18.43 261.59 37.03"/><polygon class="cls-13" points="256.1 40.63 233.1 65.05 252.78 84.64 275.76 51.09 260.6 38.19 256.1 40.63"/><polygon class="cls-14" points="207.17 111.59 216.98 136.59 251.43 85.87 232.17 66.61 207.17 111.59"/><polygon class="cls-12" points="196.16 82.88 206.25 108.71 230.94 63.78 255.49 39.09 259.87 36.75 279.01 17.61 260.16 5.19 206.25 64.08 196.16 82.88"/><polygon class="cls-15" points="195.45 80.75 205.66 62.16 258.34 4.36 256.3 1.45 252.38 0 189.65 66.61 195.45 80.75"/><polygon class="cls-16" points="341.18 61.42 379.74 6.31 265.03 6.31 280.23 15.85 341.18 61.42"/><polygon class="cls-17" points="251.43 211.39 263.77 181.3 233.71 168.96 219.57 202.2 251.43 211.39"/><polygon class="cls-18" points="194.74 260.98 228.34 270.18 251.43 213.33 218.81 203.6 194.74 260.98"/><polygon class="cls-19" points="227.53 271.8 194.74 262.89 176.71 308.39 213.46 308.39 227.53 271.8"/><polygon class="cls-10" points="182.3 170.52 201.45 140.86 202.72 141.51 184.05 170.98 226.59 180.23 232.45 167.57 213.5 143.28 186.42 71.23 124.59 155.4 153.65 162.74 166.47 140.14 167.91 140.71 155.09 163.32 182.3 170.52"/><polygon class="cls-20" points="202.12 196.77 212.34 178.37 182.54 172.03 160.34 166.16 156.53 187.57 202.12 196.77"/><polygon class="cls-21" points="155.43 183.37 158.72 165.6 123.7 156.98 124.57 177.13 155.43 183.37"/><polygon class="cls-14" points="124.18 180.43 125.49 278.06 153.91 283.28 180.95 294.43 225.1 180.79 213.15 178.34 202.84 198.18 153.75 189 154.38 185.27 124.18 180.43"/><polygon class="cls-22" points="254.28 304.1 271.42 277.99 285.61 228.64 255.17 216.22 220 304.1 254.28 304.1"/><polygon class="cls-7" points="285.61 226.34 322 152.18 321.21 148.07 315.2 139.53 304.45 134.48 293.54 140.96 270.14 180.41 255.91 214.32 285.61 226.34"/><polygon class="cls-7" points="230.66 332.68 243.88 326.56 269.23 308.39 294.08 299.38 291.88 291.79 279.27 291.06 258.45 301.83 255.39 305.99 219.28 305.99 216.21 316.77 216.21 327.05 218.54 334.89 230.66 332.68"/><polygon class="cls-7" points="274.15 280.21 272.26 279.46 258.74 299.88 278.21 289.67 274.15 280.21"/><polygon class="cls-7" points="312.81 236.89 286.63 231.34 273.3 277.85 275.37 278.63 301.19 276.86 312.81 236.89"/><path class="cls-23" d="M296.45,298.71l96.66-27.81a.8.8,0,0,0,.53-1l-3.05-8.66a.79.79,0,0,0-.67-.52l-9-.95a.79.79,0,0,1-.58-.35l-3.69-5.49a.79.79,0,0,0-.95-.3l-31.41,12.51-.08,0L301.63,278l-.14,0-24.63,2.07a.79.79,0,0,0-.66,1.11l3.52,8a.78.78,0,0,0,.68.47l12.1.61a.8.8,0,0,1,.72.56l2.25,7.33A.79.79,0,0,0,296.45,298.71Z"/><polygon class="cls-24" points="332.94 167.57 336.17 163.09 322.99 153.27 287.1 229.54 313.45 235.15 332.94 167.57"/><polygon class="cls-19" points="350.99 244.63 314.03 237.09 303.02 276.09 344.23 264.45 350.99 244.63"/><polygon class="cls-7" points="363.26 217.58 323.15 205 314.82 235.35 351.46 242.59 363.26 217.58"/><polygon class="cls-25" points="375.68 182.04 354.92 175.28 337.31 164.27 334.32 167.89 323.47 203.43 363.73 215.54 375.68 182.04"/><polygon class="cls-16" points="388.36 72.73 375.46 73.36 356.56 105.52 352.5 103.24 341.96 125.11 324.19 148.54 324.35 151.53 341.02 164.11 371.85 144.45 396.22 113.94 415.1 83.59 388.36 72.73"/><polygon class="cls-26" points="307.9 122.12 306.17 132.19 316.7 138.32 322.37 146.03 339.82 124.01 350.05 101.68 331.02 88.31 307.9 122.12"/><polygon class="cls-7" points="331.49 87.05 347.7 97.69 352.09 61.41 350.52 60.31 331.49 87.05"/><polygon class="cls-7" points="353.35 62.2 349.33 99.11 355.53 102.88 373.01 73.05 368.29 72.27 353.35 62.2"/><polygon class="cls-27" points="392.53 45.39 376.1 71.51 388.21 71.03 415.43 82.92 427.35 49.72 392.53 45.39"/><polygon class="cls-7" points="351.32 59.03 369.28 70.65 374.38 71.51 391.38 44.42 400.12 34.15 376.1 21.18 351.32 59.03"/><polygon class="cls-28" points="432.1 34.82 413.53 23.99 393.39 44.04 415.68 46.69 427.61 48.32 432.1 34.82"/><polygon class="cls-29" points="401.28 33.01 412.86 22.88 462.54 47.71 487.33 6.23 449.9 5.64 438.58 5.69 422.08 5.39 409.48 5.8 386.08 5.19 376.97 19.6 401.28 33.01"/><polygon class="cls-30" points="400.8 209.94 405.2 190.89 377.34 182.96 365.17 216.64 393.92 226.87 400.8 209.94"/><polygon class="cls-31" points="385.63 246.97 393.04 228.63 364.47 218.41 353.18 242.74 379.11 248.03 385.63 246.97"/><polygon class="cls-32" points="376.99 249.44 352.48 244.86 345.95 263.55 375.93 251.56 376.99 249.44"/><polygon class="cls-33" points="389.69 258.96 386.86 248.21 379.11 249.62 378.4 251.91 381.57 257.91 389.69 258.96"/><polygon class="cls-34" points="471.94 232.34 469.82 226.87 389.23 247.85 392.23 258.44 471.94 232.34"/><polygon class="cls-7" points="418.21 236.38 394.69 229 387.81 245.05 418.21 236.38"/><polygon class="cls-35" points="468.66 224.42 472.72 211.68 407.47 191.43 403.59 208.71 396.18 226.69 420.34 236.12 468.66 224.42"/><polygon class="cls-36" points="399.98 187.21 414.15 158.66 372 146.19 342.51 165.47 355.94 173.78 399.98 187.21"/><polygon class="cls-37" points="415.48 159.23 401.11 187.79 439.11 199.87 452.53 169.63 415.48 159.23"/><polygon class="cls-24" points="372.95 144.49 453.28 168.3 471.43 140.33 397.33 114.81 372.95 144.49"/><polygon class="cls-10" points="397.76 113.69 473.21 139.99 491.94 112.46 415.48 84.75 397.76 113.69"/><polygon class="cls-13" points="156.56 5.62 124.5 5.39 124.05 149.66 184.88 67.97 156.56 5.62"/><polygon class="cls-38" points="244.27 5.39 161.83 5.62 188.62 64.02 244.27 5.39"/><polygon class="cls-39" points="433.81 35.65 417.71 82.99 532.65 125.94 548.04 131.2 585.53 143.89 595.94 153.5 657.4 137.32 657.36 108.37 657.84 18.08 587.8 10.76 535.09 16.13 501.17 5.88 489.94 5.63 463.34 50.29 433.81 35.65"/><polygon class="cls-7" points="586.83 8.31 657.6 15.88 657.6 5.63 506.54 5.88 534.12 13.93 586.83 8.31"/><polygon class="cls-40" points="546.07 165.95 473.42 141.51 456.15 168.2 529.31 189.7 546.07 165.95"/><polygon class="cls-7" points="568.97 140.77 531.1 189.84 537.3 191.04 539.59 193.21 542.09 185.7 553.08 171.34 560.37 176.78 550.36 191.69 571.36 183.75 593.45 154.69 583.77 145.88 568.97 140.77"/><polygon class="cls-7" points="489.23 216.63 474.12 212.08 471.21 223.73 502.33 223 496.14 215.9 489.23 216.63"/><polygon class="cls-41" points="536.51 192.59 499.39 183.56 494.26 195.46 492.42 195.25 497.75 182.95 454.48 169.82 441.2 200.5 490.16 214.94 499.6 207.97 539.38 194.64 536.51 192.59"/><polygon class="cls-7" points="496.8 212.89 496.8 214.45 498.36 215.72 500.99 214.74 501.09 212.21 499.14 210.94 496.8 212.89"/><polygon class="cls-7" points="502.26 208.69 500.51 210.06 501.29 210.55 502.26 208.69"/><polygon class="cls-7" points="492.41 214.94 495.24 214.25 495.24 213.28 492.41 214.94"/><polygon class="cls-7" points="499.63 217.08 501.29 219.23 500.9 216.2 499.63 217.08"/><polygon class="cls-42" points="475.44 140.17 508.4 151.16 530.37 126.94 493.37 113.26 475.44 140.17"/><polygon class="cls-8" points="510.41 151.6 547.64 165.06 566.92 139.94 531.94 128.06 510.41 151.6"/><polygon class="cls-38" points="657.4 139.54 595.94 155.68 575.09 181.96 657.4 150.06 657.4 139.54"/><polygon class="cls-21" points="124.45 298.58 151.41 303.71 156.54 285.88 124.68 279.2 124.45 298.58"/><polygon class="cls-43" points="179.04 295.91 158.32 286.77 156.54 292.79 176.81 303.49 179.04 295.91"/><polygon class="cls-44" points="150.52 328.21 145.4 325.76 150.75 305.71 124.68 300.14 124.23 336.46 139.16 335.79 150.52 328.21"/><polygon class="cls-45" points="152.08 327.1 162.33 316.85 159.88 313.06 164.34 299.03 155.65 294.35 147.12 324.74 152.08 327.1"/><polygon class="cls-7" points="176.16 305 165.83 299.61 161.9 312.53 163.69 315.68 176.16 305"/><polygon class="cls-46" points="209.79 336 211.81 324.65 210.73 315.6 212.22 310.33 172.35 310.19 152.89 328.3 139.65 337.76 124.52 338.03 124.52 356.81 177.62 339.65 209.79 336"/><path class="cls-7" d="M214.72,340.51A1.61,1.61,0,1,0,213,338.9,1.69,1.69,0,0,0,214.72,340.51Z"/><polygon class="cls-19" points="210.53 342.33 181.42 344.31 124.71 361.74 124.53 381.39 222.81 381.39 218.72 373.35 210.53 342.33"/><polygon class="cls-47" points="292.21 305.36 270.84 312.92 245.53 331.33 219.88 340.86 219.55 356.31 223.66 372.75 228.59 381.3 259.99 381.63 288.43 317.36 292.21 305.36"/><polygon class="cls-12" points="333.08 333.25 333.51 331.51 369.8 336.15 376.11 299.83 338.81 290.67 294.59 304.88 292.06 316.66 264.06 381.37 361.81 381.56 369.6 338.15 333.08 333.25"/><polygon class="cls-19" points="460.46 271.87 399.13 273.98 341.88 289.45 451.03 314.91 460.46 271.87"/><polygon class="cls-48" points="371.49 337.13 384.71 337.98 395.4 341.21 399.4 305.11 378.25 300.33 371.49 337.13"/><polygon class="cls-15" points="395.54 343.46 383.87 339.38 371.07 338.96 363.47 381.44 413.41 381.3 418.33 347.54 395.54 343.46"/><polygon class="cls-12" points="425.64 310.97 401.17 305.49 396.95 341.21 418.61 346.14 425.64 310.97"/><polygon class="cls-11" points="450.77 316.57 426.97 311.66 420.17 346.41 443.84 351.06 450.77 316.57"/><polygon class="cls-49" points="420.05 348.04 414.89 381.28 437.8 381.78 443.21 352.7 420.05 348.04"/><polygon class="cls-50" points="488.93 270.57 462.23 271.94 452.61 314.94 477.15 318.86 488.93 270.57"/><polygon class="cls-51" points="504.04 325.93 497.76 358.91 495.4 358.52 502.08 325.74 479.11 321.22 472.83 354.79 471.26 354.2 477.15 321.02 452.21 316.7 439.65 381.49 510.92 381.49 521.12 329.27 504.04 325.93"/><polygon class="cls-52" points="536.04 267.62 491.28 269.78 479.31 318.86 521.52 327.11 536.04 267.62"/><polygon class="cls-18" points="555.87 301 542.33 299.82 542.52 298.25 556.46 299.23 564.32 265.86 538.01 267.03 523.09 327.31 547.04 334.18 555.87 301"/><polygon class="cls-53" points="567.57 355.09 566.49 354.95 569.48 342.71 548.39 336.86 544.04 356.72 542.41 356.18 546.08 336.31 522.95 329.24 512.75 381.21 657.5 381.48 657.5 367.19 570.7 343.25 567.57 355.09"/><polygon class="cls-13" points="590.57 263.59 566.64 265.76 548.59 335.15 569.91 341.02 590.57 263.59"/><polygon class="cls-54" points="610.15 261.85 592.75 263.81 581.87 304.05 597.53 307.96 610.15 261.85"/><polygon class="cls-9" points="629.94 259.68 612.32 261.42 599.49 307.75 616.67 312.1 629.94 259.68"/><polygon class="cls-55" points="617.98 315.36 581 305.57 571.86 341.46 657.35 365.17 657.56 256.19 632.12 259.68 617.98 315.36"/><polygon class="cls-56" points="657.46 152.65 571.88 186.04 574.66 194.79 572.99 194.96 569.49 187.11 503.38 208.98 502.38 212.32 503.05 220.16 506.44 236.37 595.86 211.31 596.7 214.15 522.91 234.52 523.41 235.85 606.88 215.66 657.29 195.29 657.46 152.65"/><polygon class="cls-57" points="471.05 226.3 473.07 233.49 392.89 260.66 395.81 269.42 489.92 265.38 503.85 237.3 501.82 224.95 471.05 226.3"/><polygon class="cls-58" points="520.66 234.94 505.59 238.27 492.36 265.19 537.35 263.01 547.93 231.83 521.7 238.04 520.66 234.94"/><polygon class="cls-20" points="550 231.26 539.41 262.89 592.22 258.64 606.6 217.22 550 231.26"/><polygon class="cls-7" points="630.41 236.78 604.53 227.92 594.17 258.64 623.39 255.88 630.41 236.78"/><polygon class="cls-7" points="607.98 217.22 605.22 225.73 630.76 234.48 642.72 202.84 607.98 217.22"/><polygon class="cls-7" points="632.37 235.05 651.81 242.19 657.56 227.12 657.79 196.74 643.99 202.38 632.37 235.05"/><polygon class="cls-7" points="625.58 255.41 648.59 252.65 651.47 244.14 632.02 237.12 625.58 255.41"/><polygon class="cls-7" points="657.45 232.29 650.43 252.19 657.45 251.85 657.45 232.29"/><polygon class="cls-7" points="543.09 186.55 540.72 193.93 548.67 192.07 558.7 177.03 553.46 172.92 543.09 186.55"/><text class="cls-3" transform="translate(315.85 110.35) rotate(-55.97)">P</text><text class="cls-3" transform="translate(318.86 105.89) rotate(-55.97)">r</text><text class="cls-3" transform="translate(321.11 102.55) rotate(-55.97)">o</text><text class="cls-3" transform="matrix(0.56, -0.83, 0.83, 0.56, 324.12, 98.09)">t</text><text class="cls-3" transform="matrix(0.56, -0.83, 0.83, 0.56, 326.37, 94.76)">t</text><text class="cls-3" transform="matrix(0.56, -0.83, 0.83, 0.56, 328.63, 91.42)">e</text><text class="cls-3" transform="translate(331.66 86.93) rotate(-55.97)">s</text><text class="cls-3" transform="translate(334.28 83.05) rotate(-55.97)">e</text><text class="cls-3" transform="translate(337.28 78.61) rotate(-55.97)">r</text><text class="cls-3" transform="translate(339.55 75.24) rotate(-55.97)"> </text><text class="cls-3" transform="matrix(0.56, -0.83, 0.83, 0.56, 340.68, 73.58)">S</text><text class="cls-3" transform="matrix(0.56, -0.83, 0.83, 0.56, 343.31, 69.68)">t</text><text class="cls-3" transform="translate(345.56 66.34) rotate(-55.97)">r</text><text class="cls-3" transform="translate(347.82 62.99) rotate(-55.97)">a</text><text class="cls-3" transform="matrix(0.56, -0.83, 0.83, 0.56, 350.83, 58.54)">ß</text><text class="cls-3" transform="translate(353.84 54.09) rotate(-55.97)">e</text><text class="cls-3" transform="matrix(1, -0.04, 0.04, 1, 424.73, 273.62)">W</text><text class="cls-3" transform="translate(432.77 273.3) rotate(-2.26)">i</text><text class="cls-3" transform="translate(435.48 273.2) rotate(-2.26)">e</text><text class="cls-3" transform="matrix(1, -0.04, 0.04, 1, 440.85, 272.99)">n</text><text class="cls-3" transform="translate(446.21 272.77) rotate(-2.26)">e</text><text class="cls-3" transform="translate(451.6 272.56) rotate(-2.26)">r</text><text class="cls-3" transform="translate(455.62 272.4) rotate(-2.26)"> </text><text class="cls-3" transform="translate(457.65 272.32) rotate(-2.26)">S</text><text class="cls-3" transform="translate(462.32 272.14) rotate(-2.26)">t</text><text class="cls-3" transform="matrix(1, -0.04, 0.04, 1, 466.35, 271.98)">r</text><text class="cls-3" transform="translate(470.39 271.82) rotate(-2.26)">a</text><text class="cls-3" transform="translate(475.74 271.61) rotate(-2.26)">ß</text><text class="cls-3" transform="matrix(1, -0.04, 0.04, 1, 481.14, 271.4)">e</text><text class="cls-3" transform="matrix(0.97, -0.26, 0.26, 0.97, 558.38, 232.97)">W</text><text class="cls-3" transform="matrix(0.97, -0.26, 0.26, 0.97, 566.17, 230.91)">e</text><text class="cls-3" transform="translate(571.38 229.53) rotate(-14.83)">i</text><text class="cls-3" transform="matrix(0.97, -0.26, 0.26, 0.97, 573.98, 228.84)">k</text><text class="cls-3" transform="matrix(0.97, -0.26, 0.26, 0.97, 579.18, 227.46)">e</text><text class="cls-3" transform="translate(584.36 226.09) rotate(-14.83)">n</text><text class="cls-3" transform="matrix(0.97, -0.26, 0.26, 0.97, 589.56, 224.72)">d</text><text class="cls-3" transform="translate(594.76 223.34) rotate(-14.83)">o</text><text class="cls-3" transform="translate(599.96 221.96) rotate(-14.83)">r</text><text class="cls-3" transform="translate(603.88 220.93) rotate(-14.83)">f</text><text class="cls-3" transform="matrix(0.97, -0.26, 0.26, 0.97, 607.76, 219.9)">e</text><text class="cls-3" transform="translate(612.94 218.52) rotate(-14.83)">r</text><text class="cls-3" transform="translate(616.86 217.49) rotate(-14.83)"> </text><text class="cls-3" transform="matrix(0.97, -0.26, 0.26, 0.97, 618.79, 216.98)">S</text><text class="cls-3" transform="translate(623.34 215.77) rotate(-14.83)">t</text><text class="cls-3" transform="translate(627.23 214.74) rotate(-14.83)">r</text><text class="cls-3" transform="translate(631.16 213.7) rotate(-14.83)">a</text><text class="cls-3" transform="translate(636.35 212.33) rotate(-14.83)">ß</text><text class="cls-3" transform="translate(641.55 210.95) rotate(-14.83)">e</text><text class="cls-3" transform="translate(531.56 334.56) rotate(13.39)">F</text><text class="cls-3" transform="translate(536.12 335.64) rotate(13.39)">e</text><text class="cls-3" transform="translate(541.37 336.89) rotate(13.39)">l</text><text class="cls-3" transform="translate(543.97 337.51) rotate(13.39)">d</text><text class="cls-3" transform="matrix(0.97, 0.23, -0.23, 0.97, 549.19, 338.76)">g</text><text class="cls-3" transform="translate(554.43 340) rotate(13.39)">a</text><text class="cls-3" transform="translate(559.66 341.25) rotate(13.39)">s</text><text class="cls-3" transform="matrix(0.97, 0.23, -0.23, 0.97, 564.23, 342.34)">s</text><text class="cls-3" transform="translate(568.8 343.42) rotate(13.39)">e</text><text class="cls-3" transform="matrix(0.8, 0.6, -0.6, 0.8, 286.44, 24.58)">A</text><text class="cls-3" transform="matrix(0.8, 0.6, -0.6, 0.8, 290.74, 27.83)">u</text><text class="cls-3" transform="translate(295.03 31.08) rotate(37.1)">g</text><text class="cls-3" transform="matrix(0.8, 0.6, -0.6, 0.8, 299.32, 34.32)">a</text><text class="cls-3" transform="matrix(0.8, 0.6, -0.6, 0.8, 303.61, 37.57)">s</text><text class="cls-3" transform="translate(307.34 40.39) rotate(37.1)">s</text><text class="cls-3" transform="translate(311.12 43.24) rotate(37.1)">e</text><text class="cls-3" transform="translate(457.39 101.79) rotate(19.81)">B</text><text class="cls-3" transform="translate(462.44 103.61) rotate(19.81)">r</text><text class="cls-3" transform="translate(466.24 104.98) rotate(19.81)">u</text><text class="cls-3" transform="matrix(0.94, 0.34, -0.34, 0.94, 471.3, 106.8)">n</text><text class="cls-3" transform="translate(476.37 108.63) rotate(19.81)">n</text><text class="cls-3" transform="matrix(0.94, 0.34, -0.34, 0.94, 481.41, 110.45)">e</text><text class="cls-3" transform="translate(486.49 112.28) rotate(19.81)">n</text><text class="cls-3" transform="translate(491.56 114.1) rotate(19.81)">g</text><text class="cls-3" transform="matrix(0.94, 0.34, -0.34, 0.94, 496.61, 115.92)">a</text><text class="cls-3" transform="matrix(0.94, 0.34, -0.34, 0.94, 501.66, 117.74)">s</text><text class="cls-3" transform="translate(506.09 119.34) rotate(19.81)">s</text><text class="cls-3" transform="translate(510.51 120.93) rotate(19.81)">e</text><text class="cls-3" transform="matrix(0.95, 0.31, -0.31, 0.95, 431.47, 128.72)">R</text><text class="cls-3" transform="translate(436.58 130.41) rotate(18.36)">o</text><text class="cls-3" transform="translate(441.68 132.11) rotate(18.36)">s</text><text class="cls-3" transform="matrix(0.95, 0.31, -0.31, 0.95, 446.15, 133.59)">e</text><text class="cls-3" transform="translate(451.23 135.27) rotate(18.36)">n</text><text class="cls-3" transform="translate(456.36 136.98) rotate(18.36)">g</text><text class="cls-3" transform="translate(461.48 138.67) rotate(18.36)">a</text><text class="cls-3" transform="translate(466.56 140.36) rotate(18.36)">s</text><text class="cls-3" transform="translate(471.03 141.84) rotate(18.36)">s</text><text class="cls-3" transform="matrix(0.95, 0.31, -0.31, 0.95, 475.49, 143.32)">e</text><text class="cls-3" transform="translate(129.06 360.97) rotate(-17.15)">W</text><text class="cls-3" transform="translate(136.75 358.59) rotate(-17.15)">i</text><text class="cls-3" transform="translate(139.31 357.8) rotate(-17.15)">e</text><text class="cls-3" transform="matrix(0.96, -0.29, 0.29, 0.96, 144.47, 356.21)">n</text><text class="cls-3" transform="translate(149.6 354.63) rotate(-17.15)">e</text><text class="cls-3" transform="translate(154.75 353.04) rotate(-17.15)">r</text><text class="cls-3" transform="translate(158.6 351.85) rotate(-17.15)"> </text><text class="cls-3" transform="translate(160.52 351.26) rotate(-17.15)">S</text><text class="cls-3" transform="translate(165 349.87) rotate(-17.15)">t</text><text class="cls-3" transform="translate(168.86 348.68) rotate(-17.15)">r</text><text class="cls-3" transform="translate(172.72 347.49) rotate(-17.15)">a</text><text class="cls-3" transform="matrix(0.96, -0.29, 0.29, 0.96, 177.84, 345.91)">ß</text><text class="cls-3" transform="translate(183 344.32) rotate(-17.15)">e</text><text class="cls-3" transform="translate(219.96 304.58) rotate(-68.33)">P</text><text class="cls-3" transform="matrix(0.37, -0.93, 0.93, 0.37, 221.94, 299.59)">r</text><text class="cls-3" transform="translate(223.43 295.84) rotate(-68.33)">o</text><text class="cls-3" transform="translate(225.42 290.84) rotate(-68.33)">t</text><text class="cls-3" transform="matrix(0.37, -0.93, 0.93, 0.37, 226.9, 287.1)">t</text><text class="cls-3" transform="translate(228.41 283.32) rotate(-68.33)">e</text><text class="cls-3" transform="translate(230.39 278.33) rotate(-68.33)">s</text><text class="cls-3" transform="translate(232.12 273.98) rotate(-68.33)">e</text><text class="cls-3" transform="matrix(0.37, -0.93, 0.93, 0.37, 234.1, 268.99)">r</text><text class="cls-3" transform="matrix(0.37, -0.93, 0.93, 0.37, 235.6, 265.22)"> </text><text class="cls-3" transform="translate(236.34 263.35) rotate(-68.33)">S</text><text class="cls-3" transform="translate(238.08 258.99) rotate(-68.33)">t</text><text class="cls-3" transform="translate(239.57 255.24) rotate(-68.33)">r</text><text class="cls-3" transform="translate(241.06 251.49) rotate(-68.33)">a</text><text class="cls-3" transform="translate(243.04 246.49) rotate(-68.33)">ß</text><text class="cls-3" transform="translate(245.03 241.5) rotate(-68.33)">e</text><text class="cls-3" transform="translate(374.69 180.97) rotate(17.95)">B</text><text class="cls-3" transform="matrix(0.95, 0.31, -0.31, 0.95, 379.8, 182.63)">a</text><text class="cls-3" transform="matrix(0.95, 0.31, -0.31, 0.95, 384.89, 184.28)">h</text><text class="cls-3" transform="translate(390.02 185.94) rotate(17.95)">n</text><text class="cls-3" transform="translate(395.15 187.6) rotate(17.95)">s</text><text class="cls-3" transform="translate(399.61 189.04) rotate(17.95)">t</text><text class="cls-3" transform="translate(403.46 190.29) rotate(17.95)">r</text><text class="cls-3" transform="translate(407.27 191.53) rotate(17.95)">a</text><text class="cls-3" transform="matrix(0.95, 0.31, -0.31, 0.95, 412.41, 193.19)">ß</text><text class="cls-3" transform="translate(417.52 194.84) rotate(17.95)">e</text><text class="cls-3" transform="matrix(0.37, 0.93, -0.93, 0.37, 178.49, 54.65)">G</text><text class="cls-3" transform="translate(180.47 59.68) rotate(68.47)">ä</text><text class="cls-3" transform="translate(182.44 64.68) rotate(68.47)">n</text><text class="cls-3" transform="translate(184.42 69.68) rotate(68.47)">s</text><text class="cls-3" transform="translate(186.14 74.05) rotate(68.47)">e</text><text class="cls-3" transform="translate(188.11 79.03) rotate(68.47)">r</text><text class="cls-3" transform="matrix(0.37, 0.93, -0.93, 0.37, 189.59, 82.79)">n</text><text class="cls-3" transform="matrix(0.37, 0.93, -0.93, 0.37, 191.57, 87.81)">d</text><text class="cls-3" transform="translate(193.53 92.79) rotate(68.47)">o</text><text class="cls-3" transform="matrix(0.37, 0.93, -0.93, 0.37, 195.51, 97.81)">r</text><text class="cls-3" transform="translate(196.99 101.56) rotate(68.47)">f</text><text class="cls-3" transform="matrix(0.37, 0.93, -0.93, 0.37, 198.46, 105.29)">e</text><text class="cls-3" transform="translate(200.44 110.31) rotate(68.47)">r</text><text class="cls-3" transform="translate(201.92 114.05) rotate(68.47)"> </text><text class="cls-3" transform="translate(202.66 115.92) rotate(68.47)">S</text><text class="cls-3" transform="translate(204.38 120.29) rotate(68.47)">t</text><text class="cls-3" transform="translate(205.86 124.05) rotate(68.47)">r</text><text class="cls-3" transform="translate(207.35 127.82) rotate(68.47)">a</text><text class="cls-3" transform="matrix(0.37, 0.93, -0.93, 0.37, 209.32, 132.82)">ß</text><text class="cls-3" transform="translate(211.29 137.8) rotate(68.47)">e</text><ellipse class="cls-59" cx="464.21" cy="215.72" rx="6.21" ry="6.07"/><polygon class="cls-60" points="460.84 212.58 460.84 215.28 462.12 215.85 462.12 219.69 463.17 219.69 463.17 215.88 464.28 215.19 464.28 212.58 463.6 212 463.6 214.38 462.96 214.38 463 211.74 462.19 211.74 462.19 214.34 461.51 214.34 461.56 212 460.84 212.58"/><polyline class="cls-60" points="466.97 211.74 465.3 212.81 465.3 215.72 466.01 216.17 466.01 219.69 466.97 219.69 466.97 211.74"/><ellipse class="cls-59" cx="367.62" cy="135.48" rx="6.21" ry="6.07"/><polygon class="cls-60" points="362.42 134.21 367.48 131.43 372.81 134.21 371.87 134.66 371.87 138.96 370.93 138.96 370.93 135.42 367.62 137.44 362.42 134.21"/><path class="cls-60" d="M364.72,136.05l-.06,2.11s3,2.22,5.76,0v-2l-2.79,1.64Z"/><ellipse class="cls-59" cx="554.29" cy="264.67" rx="7.05" ry="7.21" transform="translate(118.43 697.46) rotate(-70.32)"/><ellipse class="cls-59" cx="362.16" cy="214.83" rx="7.76" ry="7.58"/><rect class="cls-60" x="357.46" y="218.41" width="9.56" height="1.29"/><polygon class="cls-60" points="362.21 209.17 362.21 209.17 356.02 212.07 356.02 213.42 357.44 213.42 357.44 217.68 360.34 217.68 360.34 214.9 359.18 214.9 359.18 213.42 361.5 213.42 361.5 217.74 362.34 217.74 362.34 217.74 362.92 217.74 362.92 213.42 365.24 213.42 365.24 214.9 364.07 214.9 364.07 217.67 366.98 217.67 366.98 213.42 368.39 213.42 368.39 212.06 362.21 209.17"/><ellipse class="cls-59" cx="585.7" cy="199.28" rx="7.21" ry="7.05"/><path class="cls-60" d="M551.23,260.14v7.63H550v1.43h7.38v-1.42h-1.13l0-1.35s2.66,1.2,1.84-2.7h.45v-2.28l-.34-.07-.07-.9-.86-.08-.12.86-.33.08v2.32l.37,0s.41,2.43-.9,1.79v-5.35Z"/><rect class="cls-59" x="552.31" y="261.31" width="2.72" height="2.43"/><polygon class="cls-60" points="582.63 202.45 581.57 202.07 581.57 195.84 583.06 194.18 588.34 194.18 589.84 195.74 589.84 202.01 588.65 202.45 589.84 204.37 588.59 204.37 587.84 203.27 583.68 203.26 582.94 204.37 581.57 204.37 582.63 202.45"/><polygon class="cls-59" points="582.89 199.69 582.89 200.74 583.88 200.74 583.68 199.69 582.89 199.69"/><rect class="cls-59" x="587.75" y="199.69" width="0.99" height="1.06"/><polygon class="cls-59" points="585.67 198.42 585.68 195.25 587.99 195.25 588.74 196 588.74 198.42 585.67 198.42"/><polygon class="cls-59" points="585.73 198.42 585.72 195.25 583.41 195.25 582.66 196 582.66 198.42 585.73 198.42"/></g></g></g></svg>