<svg xmlns="http://www.w3.org/2000/svg" width="202.01" height="123.4" viewBox="0 0 202.01 123.4"><defs><style>.cls-1{fill:#fcf;}</style></defs><title>schuh 3</title><g id="Ebene_2" data-name="Ebene 2"><g id="schuh_1" data-name="schuh 1"><path class="cls-1" d="M201.18,96.64a17.65,17.65,0,0,0-3.61-5,25,25,0,0,0-5.87-4.18,6.19,6.19,0,0,0-1-.63c-3.16-1-6.32-2-9.5-2.91a18,18,0,0,0-2.12-.31c-.94-.16-1.87-.41-2.82-.52-3.27-.37-6.55-.69-9.83-1l-8.81-1c-.6-.07-1.2-.1-1.78-.21a3.55,3.55,0,0,1-3-2c-.52-1.28-1-2.59-1.4-3.91a2.73,2.73,0,0,0-2.74-2.18c-2.17.09-4.33.33-6.49.52-1,.09-1.95.24-2.92.32a.87.87,0,0,1-.63-.24,7.84,7.84,0,0,1-.82-1c-1.28-1.66-2.53-3.34-3.84-5s-2.85-3.46-4.26-5.21a5.26,5.26,0,0,0-4.06-2.37,16.32,16.32,0,0,0-5.38.69,3.34,3.34,0,0,1-1.34,0c-2.45-.27-4.89-.62-7.34-.82a29.86,29.86,0,0,0-5.59-.1q-6.24.65-12.44,1.67c-3.13.53-6.21,1.33-9.32,2a1.07,1.07,0,0,1-.66-.1q-3-1.77-6-3.58c-2.74-1.65-5.45-3.36-8.21-5s-5.75-3.22-8.63-4.81l-6.85-3.76c-1.82-1-3.62-2-5.43-3-.57-.31-1.18-.53-1.73-.86-1.77-1-3.51-2.14-5.3-3.14-1.39-.79-2.84-1.47-4.27-2.19-1.79-.9-3.57-1.82-5.38-2.68-1.43-.67-2.92-1.2-4.34-1.88a41.24,41.24,0,0,0-10.18-3.59,5.15,5.15,0,0,0-4.22.81c-2.59,1.94-4.82,4.14-5.89,7.37A9.43,9.43,0,0,0,7.27,44a2,2,0,0,1-.16,2.49.93.93,0,0,0-.09.2c-1,2.13-2,4.29-3,6.4a38.68,38.68,0,0,0-2.76,8.14A37.43,37.43,0,0,0,0,71.46,25.59,25.59,0,0,0,2.24,82.08a66.43,66.43,0,0,0,3.67,7,20.17,20.17,0,0,0,4.52,5.52,5.31,5.31,0,0,1,1.33,1.47c.68,1.29,1.23,2.65,1.82,4,1.3,3,2.51,6,3.92,8.85a30.8,30.8,0,0,0,3.18,5.17A11.89,11.89,0,0,0,27,118a29.81,29.81,0,0,0,4.72.79,35,35,0,0,0,12-.79,18.18,18.18,0,0,0,1.93-.49c.74-.25,1.46-.58,2.19-.88a8.77,8.77,0,0,0,4-2.74,15.55,15.55,0,0,0,2.34-6.55c.42-2.23.83-4.47,1.27-6.7.2-1,.36-1.09,1.42-1.06a61.57,61.57,0,0,1,8.78.76c2.92.5,5.88.74,8.82,1.17a78.1,78.1,0,0,1,14,2.88,66.66,66.66,0,0,1,10.92,4.69c1.75,1,3.41,2.09,5.14,3.1a82.71,82.71,0,0,0,11.18,6,75.69,75.69,0,0,0,7.9,3,58.38,58.38,0,0,0,10.9,1.66c2.12.17,4.25.18,6.38.27,2.44.11,4.87.36,7.31.32,3,0,6.07-.27,9.1-.5q3.64-.28,7.28-.75c2.16-.27,4.31-.62,6.45-1,3.43-.63,6.88-1.17,10.26-2a43.63,43.63,0,0,0,9.56-3.65,28.5,28.5,0,0,0,5.91-4.26,15.76,15.76,0,0,0,5-8.81A9.79,9.79,0,0,0,201.18,96.64Zm-2.65,5.1a12.45,12.45,0,0,1-4,7,25.12,25.12,0,0,1-5.2,3.77,40.77,40.77,0,0,1-8.83,3.38c-2.54.63-5.1,1.08-7.82,1.56l-2.23.4c-2.33.42-4.38.75-6.28,1-2.44.31-4.83.55-7.1.73h-.17c-2.88.22-5.85.44-8.73.48h-.44c-1.36,0-2.74-.09-4.2-.19l-2.47-.14-2.3-.08c-1.38,0-2.67-.08-4-.18a54.82,54.82,0,0,1-10.28-1.55,50.43,50.43,0,0,1-5.61-2.06l-1.94-.79a61.9,61.9,0,0,1-8.87-4.66l-1.85-1.09c-.72-.42-1.43-.86-2.13-1.29-1-.62-2-1.25-3.08-1.85a68,68,0,0,0-11.47-4.93,78.42,78.42,0,0,0-14.31-3l-.33,0c-1.25-.18-2.5-.33-3.71-.47-1.74-.21-3.39-.41-5-.69a62.88,62.88,0,0,0-9.25-.8H56.6A4.21,4.21,0,0,0,52.15,100c-.31,1.53-.6,3.07-.88,4.6l-.4,2.12a12.69,12.69,0,0,1-1.77,5.21,5.74,5.74,0,0,1-2.6,1.6l-.57.24c-.5.22-1,.42-1.41.57s-1,.26-1.56.39a36.31,36.31,0,0,1-7.74.93,23.7,23.7,0,0,1-3.08-.19l-1-.12A19.74,19.74,0,0,1,28,114.8a8.63,8.63,0,0,1-4.6-2.71,28.36,28.36,0,0,1-2.83-4.62c-.93-1.91-1.76-3.84-2.64-5.89-.4-1-.81-1.9-1.22-2.84l-.38-.87c-.47-1.08-1-2.2-1.55-3.32a8.22,8.22,0,0,0-2.16-2.49,16.86,16.86,0,0,1-3.75-4.61,63.41,63.41,0,0,1-3.49-6.68,22.23,22.23,0,0,1-1.95-9.2v-.22A34,34,0,0,1,4.51,62,34.58,34.58,0,0,1,7,54.6c.74-1.5,1.45-3,2.13-4.51.29-.61.57-1.22.85-1.83a5.34,5.34,0,0,0,.33-5.63,6.15,6.15,0,0,1,0-4.67c.69-2.06,2.1-3.78,4.72-5.74a1.3,1.3,0,0,1,.88-.26,3.78,3.78,0,0,1,.71.07A38,38,0,0,1,26,35.35c.81.39,1.62.72,2.4,1s1.34.56,1.95.85c1.31.61,2.64,1.28,3.92,1.94l1.39.7,1.19.59c1,.51,2,1,3,1.52s2,1.17,3.06,1.81c.72.44,1.45.88,2.18,1.3a12.76,12.76,0,0,0,1.21.62l.59.28,2.75,1.54,2.68,1.51,3.6,2,3.25,1.79L61.32,54c2.09,1.15,4.26,2.35,6.35,3.56,1.74,1,3.5,2.08,5.2,3.13l3,1.8c2,1.17,4,2.38,6.07,3.6a4.31,4.31,0,0,0,2.18.58,4.21,4.21,0,0,0,.87-.09l3.18-.71c2.07-.47,4-.92,6-1.25,4-.66,8.08-1.21,12.25-1.65a14.45,14.45,0,0,1,1.53-.07c1.11,0,2.29.09,3.43.18,1.49.12,3,.3,4.53.49l2.72.32c.31,0,.66.07,1,.07a5.46,5.46,0,0,0,1.7-.26,12.42,12.42,0,0,1,3.88-.53h.4c.24,0,.61,0,1.5,1.12.65.81,1.32,1.61,2,2.42s1.53,1.84,2.27,2.78,1.68,2.16,2.5,3.23l1.3,1.7.11.14a10.21,10.21,0,0,0,1,1.23A4.36,4.36,0,0,0,139.24,77h.13l.18,0c.56,0,1.12-.11,1.68-.18l1.27-.14,1.49-.14c1.48-.14,2.89-.27,4.3-.35.41,1.34.9,2.68,1.44,4,.88,2.13,2.72,3.48,5.46,4,.56.1,1.08.15,1.54.19l.49,0,2.72.3,6.11.66,3.6.37c2.07.22,4.14.43,6.2.66.43.05.91.15,1.41.26s.82.17,1.23.24l1.06.13a5.87,5.87,0,0,1,.67.08c2.65.78,5.49,1.65,9.15,2.81q.31.22.63.42l.44.25a20.68,20.68,0,0,1,4.68,3.32,14.39,14.39,0,0,1,3,4A6.44,6.44,0,0,1,198.53,101.74ZM50.73,22.56a9.4,9.4,0,1,0-9.4,9.4A9.4,9.4,0,0,0,50.73,22.56ZM85.66,4.09A4.1,4.1,0,1,1,81.56,0,4.11,4.11,0,0,1,85.66,4.09ZM77.47,22.51a7.16,7.16,0,1,1-7.16-7.16A7.16,7.16,0,0,1,77.47,22.51ZM101,10.74a4.6,4.6,0,1,1-4.6-4.6A4.6,4.6,0,0,1,101,10.74Z"/></g></g></svg>