<svg xmlns="http://www.w3.org/2000/svg" width="209.95" height="114.94" viewBox="0 0 209.95 114.94"><defs><style>.cls-1{fill:none;stroke:#000;stroke-miterlimit:10;stroke-width:4px;}.cls-2{fill:#fff;}</style></defs><title>schuh 4</title><g id="Ebene_2" data-name="Ebene 2"><g id="Ebene_5" data-name="Ebene 5"><path d="M209.2,112.94H105V2H209.2Z"/><rect class="cls-1" x="2" y="2" width="205.95" height="110.94"/><path d="M198,72.65A16.21,16.21,0,0,0,194.69,68a22.84,22.84,0,0,0-5.37-3.83,5.9,5.9,0,0,0-.95-.58c-2.89-.91-5.79-1.81-8.7-2.66a15.36,15.36,0,0,0-1.94-.29c-.86-.14-1.72-.37-2.58-.47-3-.34-6-.63-9-1l-8.07-.88c-.55-.06-1.1-.09-1.64-.19a3.22,3.22,0,0,1-2.72-1.8c-.48-1.17-.91-2.37-1.28-3.58a2.51,2.51,0,0,0-2.51-2c-2,.09-4,.31-6,.49-.89.08-1.78.21-2.67.29a.87.87,0,0,1-.57-.22,8.33,8.33,0,0,1-.76-.91c-1.17-1.52-2.32-3.06-3.51-4.56s-2.62-3.17-3.91-4.77a4.81,4.81,0,0,0-3.72-2.18,15,15,0,0,0-4.93.64,3.12,3.12,0,0,1-1.22,0c-2.25-.24-4.48-.57-6.73-.75a28.19,28.19,0,0,0-5.11-.1c-3.82.4-17.1,2.75-19.94,3.36a1,1,0,0,1-.61-.09c-1.85-1.08-3.69-2.18-5.53-3.28-2.5-1.51-5-3.08-7.52-4.55s-5.26-2.94-7.9-4.4c-2.09-1.16-4.19-2.29-6.28-3.45-1.66-.92-3.31-1.87-5-2.79-.52-.29-1.08-.49-1.59-.79-1.62-1-3.21-2-4.85-2.88-1.28-.72-2.61-1.34-3.92-2-1.64-.82-3.26-1.67-4.93-2.45-1.3-.62-2.67-1.1-4-1.73a37.58,37.58,0,0,0-9.32-3.28,4.67,4.67,0,0,0-3.87.73,14,14,0,0,0-5.4,6.76,8.65,8.65,0,0,0,.12,6.52,1.87,1.87,0,0,1-.14,2.28.61.61,0,0,0-.09.18c-.92,2-1.81,3.93-2.76,5.87a34.64,34.64,0,0,0-2.53,7.45,34.18,34.18,0,0,0-1.12,9.36,23.56,23.56,0,0,0,2,9.73,60.07,60.07,0,0,0,3.37,6.46,18.43,18.43,0,0,0,4.13,5.06,4.74,4.74,0,0,1,1.23,1.34c.62,1.18,1.12,2.42,1.66,3.65,1.2,2.7,2.3,5.45,3.6,8.1a28.38,28.38,0,0,0,2.9,4.74,10.91,10.91,0,0,0,5.78,3.58,28.22,28.22,0,0,0,4.32.72,32.15,32.15,0,0,0,11-.72c.59-.13,1.19-.26,1.77-.45s1.34-.54,2-.81a8,8,0,0,0,3.69-2.51,14.4,14.4,0,0,0,2.15-6c.39-2,.76-4.1,1.17-6.14.18-.92.32-1,1.3-1a57.14,57.14,0,0,1,8,.69c2.67.46,5.39.69,8.08,1.07a71.45,71.45,0,0,1,12.86,2.65,60.12,60.12,0,0,1,10,4.29c1.61.9,3.13,1.92,4.72,2.85a76.71,76.71,0,0,0,10.24,5.47A69.81,69.81,0,0,0,127,95.1a52.81,52.81,0,0,0,10,1.52c1.94.16,3.9.16,5.84.25,2.24.1,4.47.33,6.7.3,2.78,0,5.56-.26,8.34-.47,2.23-.16,4.45-.4,6.67-.68,2-.25,3.95-.57,5.91-.93,3.14-.57,6.31-1.07,9.4-1.84a40.45,40.45,0,0,0,8.76-3.34A25.65,25.65,0,0,0,194,86a14.41,14.41,0,0,0,4.62-8.07A9,9,0,0,0,198,72.65Z"/><path class="cls-2" d="M197.41,72.65A16.4,16.4,0,0,0,194.1,68a22.9,22.9,0,0,0-5.38-3.83,5.82,5.82,0,0,0-.94-.58c-2.9-.91-5.79-1.81-8.7-2.66a15.52,15.52,0,0,0-2-.29c-.86-.14-1.71-.37-2.58-.47-3-.34-6-.63-9-1l-8.07-.88c-.54-.06-1.09-.09-1.63-.19a3.2,3.2,0,0,1-2.72-1.8c-.49-1.17-.92-2.37-1.29-3.58a2.51,2.51,0,0,0-2.51-2c-2,.09-4,.31-5.95.49-.89.08-1.78.21-2.67.29a.89.89,0,0,1-.58-.22,8.24,8.24,0,0,1-.75-.91c-1.18-1.52-2.32-3.06-3.52-4.56s-2.61-3.17-3.9-4.77a4.81,4.81,0,0,0-3.72-2.18,15,15,0,0,0-4.93.64,3.17,3.17,0,0,1-1.23,0c-2.24-.24-4.48-.57-6.72-.75a36.5,36.5,0,0,0-5.12-.1c-1.26.08-5.25.66-5.25.66s.2,45.53,0,45.09,1.43,1,3.91,2.4a77.33,77.33,0,0,0,10.24,5.47,71.57,71.57,0,0,0,7.24,2.71,52.79,52.79,0,0,0,10,1.52c1.94.16,3.89.16,5.84.25,2.23.1,4.46.33,6.69.3,2.79,0,5.57-.26,8.34-.47,2.23-.16,4.46-.4,6.67-.68,2-.25,3.95-.57,5.91-.93,3.15-.57,6.31-1.07,9.4-1.84A40.26,40.26,0,0,0,188,89.91,25.72,25.72,0,0,0,193.39,86,14.39,14.39,0,0,0,198,77.93,9,9,0,0,0,197.41,72.65Z"/></g></g></svg>