<svg xmlns="http://www.w3.org/2000/svg" width="220.07" height="124.92" viewBox="0 0 220.07 124.92"><defs><style>.cls-1{fill:#999;}.cls-2{fill:#fff;}</style></defs><title>schuh 1</title><g id="Ebene_2" data-name="Ebene 2"><g id="schuh_1" data-name="schuh 1"><path class="cls-1" d="M218.92,87.48a16.72,16.72,0,0,0-3.43-4.79,23.79,23.79,0,0,0-5.57-4,5.53,5.53,0,0,0-1-.6c-3-.94-6-1.87-9-2.76a16.49,16.49,0,0,0-2-.29c-.89-.15-1.78-.39-2.68-.49-3.1-.35-6.21-.66-9.32-1-2.79-.29-5.57-.6-8.36-.91-.56-.06-1.13-.09-1.69-.19a3.37,3.37,0,0,1-2.82-1.86c-.49-1.22-.94-2.46-1.32-3.71a2.6,2.6,0,0,0-2.6-2.07c-2.06.09-4.11.32-6.17.5-.92.08-1.84.23-2.76.3a.85.85,0,0,1-.6-.23,8.73,8.73,0,0,1-.78-.93c-1.21-1.58-2.4-3.17-3.64-4.73s-2.71-3.28-4-4.94a5,5,0,0,0-3.85-2.25,15.46,15.46,0,0,0-5.1.66,3.23,3.23,0,0,1-1.28,0c-2.32-.25-4.63-.59-6.95-.77a28.48,28.48,0,0,0-5.3-.1q-5.92.62-11.8,1.59c-3,.49-5.9,1.25-8.85,1.88a1,1,0,0,1-.62-.1c-1.92-1.11-3.82-2.24-5.72-3.39-2.6-1.56-5.17-3.18-7.79-4.7s-5.45-3-8.19-4.57c-2.16-1.19-4.33-2.37-6.49-3.57-1.72-.95-3.43-1.93-5.15-2.88-.54-.3-1.12-.51-1.64-.82-1.68-1-3.33-2-5-3-1.32-.74-2.7-1.39-4.06-2.07-1.7-.86-3.38-1.73-5.1-2.54-1.35-.64-2.77-1.14-4.12-1.79a38.74,38.74,0,0,0-9.65-3.4,4.87,4.87,0,0,0-4,.76c-2.46,1.85-4.57,3.93-5.59,7A9,9,0,0,0,35,37.57a2,2,0,0,1-.15,2.37,1,1,0,0,0-.08.18c-1,2-1.87,4.07-2.86,6.08a36,36,0,0,0-2.62,7.71,35,35,0,0,0-1.16,9.69,24.3,24.3,0,0,0,2.1,10.08,62.39,62.39,0,0,0,3.49,6.68A19.09,19.09,0,0,0,38,85.6,4.89,4.89,0,0,1,39.26,87c.65,1.22,1.17,2.51,1.73,3.78,1.23,2.79,2.38,5.64,3.72,8.38a29.37,29.37,0,0,0,3,4.91,11.23,11.23,0,0,0,6,3.7,27.81,27.81,0,0,0,4.47.75,33.34,33.34,0,0,0,11.35-.74c.62-.14,1.24-.27,1.84-.47s1.39-.55,2.08-.84a8.34,8.34,0,0,0,3.83-2.6,15,15,0,0,0,2.22-6.21c.4-2.12.79-4.24,1.2-6.35.19-1,.34-1,1.35-1a58.3,58.3,0,0,1,8.33.72c2.77.47,5.58.71,8.36,1.11A73.64,73.64,0,0,1,112,94.85,62.79,62.79,0,0,1,122.4,99.3c1.66.93,3.24,2,4.88,3a79.79,79.79,0,0,0,10.6,5.66,71.14,71.14,0,0,0,7.5,2.81,54.76,54.76,0,0,0,10.33,1.57c2,.16,4,.17,6,.26,2.31.11,4.63.34,6.94.31,2.87,0,5.75-.26,8.63-.48,2.3-.18,4.61-.42,6.9-.71,2.05-.26,4.09-.59,6.12-1,3.25-.59,6.53-1.11,9.73-1.9a41.89,41.89,0,0,0,9.07-3.46,27,27,0,0,0,5.6-4,15,15,0,0,0,4.79-8.36A9.3,9.3,0,0,0,218.92,87.48Zm-2.51,4.84a11.8,11.8,0,0,1-3.79,6.61,23.87,23.87,0,0,1-4.93,3.58,38.78,38.78,0,0,1-8.37,3.2c-2.41.6-4.85,1-7.42,1.48l-2.12.38c-2.2.4-4.15.71-5.95.94-2.32.29-4.59.53-6.74.69h-.16c-2.73.21-5.55.42-8.28.46h-.41c-1.3,0-2.6-.08-4-.17-.78,0-1.56-.1-2.34-.13s-1.46-.06-2.19-.08c-1.3,0-2.53-.08-3.75-.17a52.1,52.1,0,0,1-9.75-1.48,45.22,45.22,0,0,1-5.32-1.94l-1.84-.75a61.86,61.86,0,0,1-8.42-4.42l-1.75-1c-.68-.4-1.35-.81-2-1.23-.94-.58-1.9-1.18-2.92-1.74a64.7,64.7,0,0,0-10.88-4.69A75.53,75.53,0,0,0,99.5,89L99.18,89c-1.18-.17-2.36-.31-3.51-.45-1.65-.19-3.22-.38-4.77-.64a59.68,59.68,0,0,0-8.77-.77h-.34a4,4,0,0,0-4.22,3.58c-.29,1.45-.56,2.91-.84,4.37l-.38,2A12,12,0,0,1,74.68,102a5.45,5.45,0,0,1-2.47,1.52l-.54.23c-.47.21-.92.4-1.34.54s-.94.25-1.48.37a34.83,34.83,0,0,1-7.34.89,23.1,23.1,0,0,1-2.92-.19l-.93-.12a17.93,17.93,0,0,1-3-.52,8.11,8.11,0,0,1-4.36-2.58,26.17,26.17,0,0,1-2.69-4.38c-.88-1.8-1.67-3.64-2.5-5.58-.39-.9-.77-1.8-1.16-2.69l-.36-.83c-.45-1-.91-2.09-1.47-3.14a7.8,7.8,0,0,0-2-2.37,15.62,15.62,0,0,1-3.55-4.38,56.91,56.91,0,0,1-3.31-6.33,21.16,21.16,0,0,1-1.86-8.72v-.22a32.44,32.44,0,0,1,1.08-8.84,32.73,32.73,0,0,1,2.38-7c.7-1.43,1.37-2.88,2-4.28l.81-1.73a5.11,5.11,0,0,0,.31-5.35,5.8,5.8,0,0,1,0-4.42c.65-2,2-3.58,4.47-5.44a1.25,1.25,0,0,1,.84-.26,4.49,4.49,0,0,1,.67.07,36.3,36.3,0,0,1,8.86,3.15c.77.37,1.54.69,2.28,1s1.27.53,1.85.8c1.24.58,2.5,1.22,3.72,1.84l1.31.67,1.13.56c1,.48,1.91.94,2.79,1.44s1.91,1.11,2.91,1.72c.69.41,1.37.83,2.07,1.23a10.55,10.55,0,0,0,1.15.59c.18.08.37.17.55.27.88.48,1.74,1,2.61,1.46l2.54,1.42,3.42,1.88,3.08,1.69c.7.39,1.4.78,2.11,1.16,2,1.1,4,2.23,6,3.37,1.65,1,3.32,2,4.93,3,.94.57,1.87,1.15,2.81,1.71,1.85,1.11,3.78,2.26,5.76,3.42a4.1,4.1,0,0,0,2.06.54,4.58,4.58,0,0,0,.83-.08l3-.67c2-.45,3.81-.87,5.69-1.19,3.76-.62,7.66-1.15,11.61-1.56a13.11,13.11,0,0,1,1.46-.07c1,0,2.17.09,3.25.17,1.42.12,2.82.29,4.3.47.86.1,1.71.21,2.57.3a9.75,9.75,0,0,0,1,.06,5.18,5.18,0,0,0,1.61-.24,11.82,11.82,0,0,1,3.68-.5h.38c.23,0,.58,0,1.42,1.06.62.77,1.25,1.53,1.88,2.29s1.45,1.75,2.16,2.64,1.59,2.05,2.37,3.06l1.23,1.62.1.13a10.31,10.31,0,0,0,1,1.16,4.09,4.09,0,0,0,2.77,1.12h.3c.53,0,1.06-.11,1.58-.17s.81-.1,1.21-.13l1.42-.14c1.4-.13,2.74-.26,4.07-.33.39,1.27.85,2.54,1.37,3.78.83,2,2.58,3.3,5.18,3.79.53.09,1,.14,1.46.18l.47,0,2.57.28q2.89.33,5.79.63l3.42.36c2,.2,3.93.4,5.89.62.4,0,.85.15,1.34.25s.77.16,1.16.22.66.09,1,.13a5.21,5.21,0,0,1,.64.08c2.52.74,5.2,1.56,8.68,2.66a5.46,5.46,0,0,0,.59.39l.42.25a19.55,19.55,0,0,1,4.44,3.15A13.77,13.77,0,0,1,216,88.72,6.16,6.16,0,0,1,216.41,92.32Z"/><ellipse class="cls-1" cx="64.61" cy="62.46" rx="64.61" ry="62.46"/><path class="cls-2" d="M219.28,82a16.58,16.58,0,0,0-3.43-4.79,23.22,23.22,0,0,0-5.57-4,5,5,0,0,0-1-.6c-3-1-6-1.88-9-2.77a18.7,18.7,0,0,0-2-.29c-.89-.15-1.78-.39-2.67-.49-3.11-.35-6.22-.65-9.33-1l-8.36-.91c-.56-.06-1.13-.09-1.69-.2a3.34,3.34,0,0,1-2.81-1.86c-.5-1.21-1-2.45-1.33-3.71a2.61,2.61,0,0,0-2.6-2.07c-2.06.09-4.11.32-6.17.5-.92.09-1.84.23-2.76.31A.9.9,0,0,1,160,60a8.84,8.84,0,0,1-.78-.94c-1.21-1.57-2.4-3.17-3.64-4.72s-2.71-3.29-4-4.94a5,5,0,0,0-3.85-2.26,15.46,15.46,0,0,0-5.1.66,3.06,3.06,0,0,1-1.28,0c-2.32-.25-4.63-.58-6.95-.77A29.37,29.37,0,0,0,129,47c-4,.42-7.89.94-11.8,1.59-3,.5-5.9,1.26-8.84,1.88a1,1,0,0,1-.63-.09c-1.92-1.12-3.82-2.25-5.72-3.39-2.6-1.57-5.17-3.19-7.79-4.71s-5.45-3.05-8.18-4.56c-2.17-1.2-4.34-2.37-6.5-3.57-1.72-1-3.43-1.94-5.15-2.89-.54-.3-1.12-.51-1.64-.81-1.68-1-3.33-2-5-3-1.32-.74-2.7-1.39-4.06-2.07-1.69-.85-3.38-1.73-5.1-2.54-1.35-.64-2.77-1.14-4.11-1.78a38.44,38.44,0,0,0-9.66-3.41,4.83,4.83,0,0,0-4,.77c-2.46,1.84-4.57,3.93-5.59,7a8.9,8.9,0,0,0,.13,6.75,2,2,0,0,1-.16,2.36,1.08,1.08,0,0,0-.08.19c-1,2-1.87,4.07-2.86,6.08a35.78,35.78,0,0,0-2.62,7.71,35,35,0,0,0-1.16,9.69,24.23,24.23,0,0,0,2.1,10.07,60.55,60.55,0,0,0,3.49,6.68,18.94,18.94,0,0,0,4.28,5.24,4.92,4.92,0,0,1,1.26,1.4c.65,1.22,1.17,2.5,1.73,3.77,1.23,2.8,2.38,5.64,3.72,8.39a29.37,29.37,0,0,0,3,4.91,11.29,11.29,0,0,0,6,3.7,28.89,28.89,0,0,0,4.48.75,33.36,33.36,0,0,0,11.35-.75,16.94,16.94,0,0,0,1.83-.47c.71-.24,1.39-.55,2.08-.84a8.32,8.32,0,0,0,3.83-2.59,15.06,15.06,0,0,0,2.22-6.22c.4-2.11.79-4.23,1.2-6.35.19-.95.34-1,1.35-1a59.78,59.78,0,0,1,8.33.72c2.77.48,5.58.71,8.36,1.11a73.66,73.66,0,0,1,13.31,2.74,61.25,61.25,0,0,1,10.36,4.45c1.66.92,3.24,2,4.88,2.94a79.85,79.85,0,0,0,10.6,5.67,73.36,73.36,0,0,0,7.5,2.8,55.73,55.73,0,0,0,10.33,1.58c2,.16,4,.17,6.05.26,2.31.1,4.63.34,6.94.3,2.88,0,5.76-.26,8.63-.48,2.31-.17,4.61-.41,6.9-.7,2-.26,4.09-.6,6.12-1,3.25-.59,6.53-1.1,9.73-1.9a41.89,41.89,0,0,0,9.07-3.46,26.24,26.24,0,0,0,5.6-4.05,14.92,14.92,0,0,0,4.79-8.35A9.28,9.28,0,0,0,219.28,82Zm-2.51,4.84a11.8,11.8,0,0,1-3.79,6.6,23.87,23.87,0,0,1-4.93,3.58,39.36,39.36,0,0,1-8.37,3.21c-2.41.59-4.84,1-7.42,1.48l-2.12.38c-2.2.4-4.15.7-5.95.93-2.32.3-4.59.53-6.74.69h-.16c-2.73.21-5.55.42-8.28.46h-.41c-1.3,0-2.6-.09-4-.17l-2.34-.14-2.19-.08c-1.3,0-2.53-.07-3.75-.17a51.33,51.33,0,0,1-9.75-1.47,47.19,47.19,0,0,1-5.32-2l-1.84-.75A59.06,59.06,0,0,1,131,95.08l-1.76-1c-.68-.4-1.35-.82-2-1.23-.94-.58-1.9-1.19-2.91-1.75a64.4,64.4,0,0,0-10.89-4.68,74.71,74.71,0,0,0-13.57-2.83l-.32,0c-1.18-.17-2.36-.32-3.51-.45-1.65-.2-3.21-.38-4.77-.65a61.09,61.09,0,0,0-8.77-.77h-.34a4,4,0,0,0-4.22,3.58c-.29,1.46-.56,2.91-.84,4.37l-.37,2A12.23,12.23,0,0,1,75,96.55a5.64,5.64,0,0,1-2.46,1.52L72,98.3c-.47.2-.92.39-1.34.53a11.23,11.23,0,0,1-1.47.37,34.34,34.34,0,0,1-7.35.89A21.38,21.38,0,0,1,59,99.9L58,99.79a18.06,18.06,0,0,1-3-.53,8.1,8.1,0,0,1-4.36-2.57,26.58,26.58,0,0,1-2.69-4.38c-.88-1.81-1.67-3.65-2.5-5.59-.38-.9-.77-1.79-1.16-2.69l-.36-.82c-.45-1-.91-2.09-1.47-3.15a7.63,7.63,0,0,0-2-2.36,15.94,15.94,0,0,1-3.55-4.38A57.91,57.91,0,0,1,33.53,67a21.13,21.13,0,0,1-1.86-8.72v-.21a32.51,32.51,0,0,1,1.08-8.85,32.92,32.92,0,0,1,2.38-7c.7-1.42,1.37-2.87,2-4.27L38,36.15a5.07,5.07,0,0,0,.31-5.34,5.82,5.82,0,0,1,0-4.43c.65-1.95,2-3.58,4.47-5.44a1.25,1.25,0,0,1,.84-.25,3.39,3.39,0,0,1,.67.07,35.89,35.89,0,0,1,8.86,3.14c.77.37,1.54.69,2.28,1s1.27.52,1.85.8c1.24.58,2.5,1.22,3.72,1.84l1.31.66,1.13.56c1,.49,1.91.94,2.8,1.44s1.9,1.12,2.9,1.72l2.07,1.24a12.43,12.43,0,0,0,1.15.58c.18.09.37.17.55.27.88.48,1.74,1,2.61,1.46L78,36.9c1.13.63,2.27,1.25,3.41,1.87l3.08,1.7,2.11,1.16c2,1.09,4,2.22,6,3.37,1.65,1,3.32,2,4.93,3l2.81,1.71c1.85,1.11,3.78,2.26,5.76,3.41a4.12,4.12,0,0,0,2.06.55,4,4,0,0,0,.84-.09c1-.21,2-.44,3-.67,2-.45,3.81-.87,5.69-1.18,3.76-.63,7.66-1.15,11.61-1.57.45,0,.92-.07,1.46-.07,1.05,0,2.17.09,3.25.18,1.42.11,2.82.28,4.3.46.86.11,1.71.21,2.57.3a7.43,7.43,0,0,0,1,.07,5.18,5.18,0,0,0,1.61-.24,11.54,11.54,0,0,1,3.69-.51h.37c.23,0,.58,0,1.43,1.07.61.77,1.24,1.53,1.87,2.29s1.45,1.75,2.16,2.63,1.59,2,2.37,3.07L156.66,61l.1.13a11.28,11.28,0,0,0,1,1.16,4.11,4.11,0,0,0,2.77,1.12h.13l.17,0c.53,0,1.06-.1,1.58-.17l1.21-.13L165,63c1.4-.13,2.74-.26,4.07-.33.4,1.26.86,2.53,1.37,3.78.83,2,2.58,3.29,5.18,3.78.53.1,1,.14,1.46.18l.47,0,2.57.28,5.8.63,3.41.35c2,.21,3.93.41,5.89.63.4,0,.85.14,1.34.24l1.16.23c.33,0,.67.09,1,.12a5.21,5.21,0,0,1,.64.08c2.52.74,5.2,1.57,8.68,2.66.19.14.39.28.59.4l.42.24a19.55,19.55,0,0,1,4.44,3.15,13.91,13.91,0,0,1,2.81,3.84A6.19,6.19,0,0,1,216.77,86.88Z"/></g></g></svg>