<svg xmlns="http://www.w3.org/2000/svg" width="187.95" height="187.95" viewBox="0 0 187.95 187.95"><defs><style>.cls-1{fill:#99c;}.cls-2,.cls-3{fill:none;stroke:#99c;stroke-miterlimit:10;}.cls-2{stroke-width:14px;}.cls-3{stroke-width:3px;}</style></defs><title>schuh 2</title><g id="Ebene_2" data-name="Ebene 2"><g id="schuh_3" data-name="schuh 3"><path class="cls-1" d="M160.09,102.57a11.06,11.06,0,0,0-2.31-3.23A15.8,15.8,0,0,0,154,96.66a3.23,3.23,0,0,0-.66-.4c-2-.64-4-1.27-6.08-1.87a11.86,11.86,0,0,0-1.35-.2c-.61-.1-1.2-.26-1.81-.33l-6.29-.66-5.65-.62c-.38,0-.76-.06-1.14-.13a2.26,2.26,0,0,1-1.9-1.25c-.34-.82-.64-1.66-.9-2.51a1.75,1.75,0,0,0-1.75-1.39c-1.39.06-2.78.21-4.16.33-.63.06-1.25.16-1.87.21a.55.55,0,0,1-.4-.16,5.35,5.35,0,0,1-.53-.63c-.82-1.06-1.62-2.14-2.46-3.19s-1.83-2.21-2.73-3.33a3.34,3.34,0,0,0-2.6-1.52,10,10,0,0,0-3.44.44,2.07,2.07,0,0,1-.86,0c-1.57-.17-3.13-.4-4.7-.52a18.56,18.56,0,0,0-3.57-.07c-2.67.28-5.33.63-8,1.07-2,.34-4,.85-6,1.27a.61.61,0,0,1-.42-.06l-3.87-2.29c-1.75-1.06-3.48-2.15-5.25-3.18S72,73.64,70.16,72.62c-1.46-.81-2.93-1.6-4.38-2.41-1.17-.64-2.32-1.3-3.48-1.95-.36-.2-.76-.34-1.11-.55-1.13-.66-2.24-1.37-3.39-2-.89-.5-1.82-.94-2.74-1.4-1.14-.58-2.28-1.17-3.44-1.72-.92-.43-1.87-.76-2.78-1.2a26.35,26.35,0,0,0-6.52-2.3,3.31,3.31,0,0,0-2.7.52,9.72,9.72,0,0,0-3.77,4.72,6,6,0,0,0,.08,4.56,1.3,1.3,0,0,1-.1,1.59.52.52,0,0,0-.06.13c-.64,1.36-1.26,2.74-1.93,4.1a24.08,24.08,0,0,0-1.77,5.21,23.7,23.7,0,0,0-.78,6.54,16.45,16.45,0,0,0,1.42,6.8,42,42,0,0,0,2.35,4.51A13.14,13.14,0,0,0,38,101.3a3.34,3.34,0,0,1,.86.94c.43.82.79,1.69,1.16,2.55.84,1.89,1.61,3.8,2.51,5.66a19.38,19.38,0,0,0,2,3.31,7.6,7.6,0,0,0,4,2.5,20.26,20.26,0,0,0,3,.51,22.5,22.5,0,0,0,7.67-.51c.41-.09.83-.18,1.23-.31s.94-.38,1.41-.57a5.59,5.59,0,0,0,2.58-1.75,10.06,10.06,0,0,0,1.5-4.2c.27-1.43.53-2.86.82-4.28.12-.65.23-.71.91-.69a39.36,39.36,0,0,1,5.62.49c1.87.32,3.76.48,5.64.75a49.14,49.14,0,0,1,9,1.85,41.56,41.56,0,0,1,7,3c1.11.62,2.18,1.34,3.29,2a53.89,53.89,0,0,0,7.15,3.82,48.3,48.3,0,0,0,5.07,1.9,38.38,38.38,0,0,0,7,1.06c1.36.11,2.73.11,4.09.17,1.56.07,3.12.23,4.68.21,1.94,0,3.89-.18,5.83-.32,1.55-.12,3.11-.28,4.66-.48,1.38-.18,2.76-.4,4.13-.65,2.19-.4,4.41-.75,6.57-1.28a28.4,28.4,0,0,0,6.12-2.34,18,18,0,0,0,3.78-2.73,10.13,10.13,0,0,0,3.23-5.65A6.14,6.14,0,0,0,160.09,102.57Z"/><circle class="cls-2" cx="93.97" cy="93.97" r="80.32"/><circle class="cls-3" cx="93.97" cy="93.97" r="92.47"/></g></g></svg>